<mxfile host="Electron" agent="Mozilla/5.0 (Windows NT 10.0; Win64; x64) AppleWebKit/537.36 (KHTML, like Gecko) draw.io/25.0.1 Chrome/128.0.6613.186 Electron/32.2.6 Safari/537.36" version="25.0.1">
  <diagram name="Page-1" id="-8aXvP8qVpMDg_G-77dH">
    <mxGraphModel dx="1671" dy="976" grid="1" gridSize="10" guides="1" tooltips="1" connect="1" arrows="1" fold="1" page="1" pageScale="1" pageWidth="1600" pageHeight="900" math="0" shadow="0">
      <root>
        <mxCell id="0" />
        <mxCell id="1" parent="0" />
        <mxCell id="eNOYl5sb12fovu8s4lw6-87" value="" style="rounded=0;whiteSpace=wrap;html=1;strokeColor=#63e984;fillColor=none;" parent="1" vertex="1">
          <mxGeometry x="520" y="220" width="960" height="580" as="geometry" />
        </mxCell>
        <mxCell id="eNOYl5sb12fovu8s4lw6-1" value="Cleaning" style="rounded=0;whiteSpace=wrap;html=1;strokeColor=#63e984;" parent="1" vertex="1">
          <mxGeometry x="560" y="320" width="120" height="60" as="geometry" />
        </mxCell>
        <mxCell id="eNOYl5sb12fovu8s4lw6-2" value="Exploratory Data Analysis" style="text;html=1;align=center;verticalAlign=middle;whiteSpace=wrap;rounded=0;fontSize=18;fontStyle=1" parent="1" vertex="1">
          <mxGeometry x="130" y="170" width="270" height="30" as="geometry" />
        </mxCell>
        <mxCell id="eNOYl5sb12fovu8s4lw6-3" value="Data Engineering" style="text;html=1;align=center;verticalAlign=middle;whiteSpace=wrap;rounded=0;fontSize=18;fontStyle=1" parent="1" vertex="1">
          <mxGeometry x="485" y="170" width="270" height="30" as="geometry" />
        </mxCell>
        <mxCell id="eNOYl5sb12fovu8s4lw6-4" value="Model Engineering" style="text;html=1;align=center;verticalAlign=middle;whiteSpace=wrap;rounded=0;fontSize=18;fontStyle=1" parent="1" vertex="1">
          <mxGeometry x="845" y="170" width="270" height="30" as="geometry" />
        </mxCell>
        <mxCell id="eNOYl5sb12fovu8s4lw6-5" value="MLOps" style="text;html=1;align=center;verticalAlign=middle;whiteSpace=wrap;rounded=0;fontSize=18;fontStyle=1" parent="1" vertex="1">
          <mxGeometry x="1165" y="170" width="270" height="30" as="geometry" />
        </mxCell>
        <mxCell id="eNOYl5sb12fovu8s4lw6-6" value="Feature&amp;nbsp;&lt;div&gt;Selection&lt;/div&gt;" style="rounded=0;whiteSpace=wrap;html=1;strokeColor=#63e984;" parent="1" vertex="1">
          <mxGeometry x="560" y="400" width="120" height="60" as="geometry" />
        </mxCell>
        <mxCell id="eNOYl5sb12fovu8s4lw6-7" value="Feature&amp;nbsp;&lt;div&gt;Engineering&lt;/div&gt;" style="rounded=0;whiteSpace=wrap;html=1;strokeColor=#63e984;" parent="1" vertex="1">
          <mxGeometry x="560" y="480" width="120" height="60" as="geometry" />
        </mxCell>
        <mxCell id="eNOYl5sb12fovu8s4lw6-8" value="ETL" style="rounded=0;whiteSpace=wrap;html=1;strokeColor=#63e984;" parent="1" vertex="1">
          <mxGeometry x="560" y="240" width="120" height="60" as="geometry" />
        </mxCell>
        <mxCell id="eNOYl5sb12fovu8s4lw6-9" value="Model&amp;nbsp;&lt;div&gt;Selection&lt;/div&gt;" style="rounded=0;whiteSpace=wrap;html=1;strokeColor=#63e984;" parent="1" vertex="1">
          <mxGeometry x="920" y="240" width="120" height="60" as="geometry" />
        </mxCell>
        <mxCell id="eNOYl5sb12fovu8s4lw6-10" value="Hyperparameter Tuning" style="rounded=0;whiteSpace=wrap;html=1;strokeColor=#63e984;" parent="1" vertex="1">
          <mxGeometry x="920" y="400" width="120" height="60" as="geometry" />
        </mxCell>
        <mxCell id="eNOYl5sb12fovu8s4lw6-11" value="Data Split" style="rounded=0;whiteSpace=wrap;html=1;strokeColor=#63e984;" parent="1" vertex="1">
          <mxGeometry x="560" y="560" width="120" height="60" as="geometry" />
        </mxCell>
        <mxCell id="eNOYl5sb12fovu8s4lw6-12" value="Cross&amp;nbsp;&lt;div&gt;Validation&lt;/div&gt;" style="rounded=0;whiteSpace=wrap;html=1;strokeColor=#63e984;" parent="1" vertex="1">
          <mxGeometry x="920" y="320" width="120" height="60" as="geometry" />
        </mxCell>
        <mxCell id="eNOYl5sb12fovu8s4lw6-13" value="Model Fit" style="rounded=0;whiteSpace=wrap;html=1;strokeColor=#63e984;" parent="1" vertex="1">
          <mxGeometry x="920" y="480" width="120" height="60" as="geometry" />
        </mxCell>
        <mxCell id="eNOYl5sb12fovu8s4lw6-14" value="Model Eval" style="rounded=0;whiteSpace=wrap;html=1;strokeColor=#63e984;" parent="1" vertex="1">
          <mxGeometry x="920" y="560" width="120" height="60" as="geometry" />
        </mxCell>
        <mxCell id="eNOYl5sb12fovu8s4lw6-15" value="Online Predict" style="rounded=0;whiteSpace=wrap;html=1;strokeColor=#63e984;" parent="1" vertex="1">
          <mxGeometry x="1320" y="320" width="120" height="60" as="geometry" />
        </mxCell>
        <mxCell id="eNOYl5sb12fovu8s4lw6-16" value="Batch Predict" style="rounded=0;whiteSpace=wrap;html=1;strokeColor=#63e984;" parent="1" vertex="1">
          <mxGeometry x="1160" y="320" width="120" height="60" as="geometry" />
        </mxCell>
        <mxCell id="eNOYl5sb12fovu8s4lw6-17" value="Drift&amp;nbsp;&lt;div&gt;Monitoring&lt;/div&gt;" style="rounded=0;whiteSpace=wrap;html=1;strokeColor=#63e984;" parent="1" vertex="1">
          <mxGeometry x="1240" y="400" width="120" height="60" as="geometry" />
        </mxCell>
        <mxCell id="eNOYl5sb12fovu8s4lw6-18" value="Model Deploy" style="rounded=0;whiteSpace=wrap;html=1;strokeColor=#63e984;" parent="1" vertex="1">
          <mxGeometry x="1240" y="240" width="120" height="60" as="geometry" />
        </mxCell>
        <mxCell id="eNOYl5sb12fovu8s4lw6-19" value="Discovery" style="rounded=0;whiteSpace=wrap;html=1;dashed=1;" parent="1" vertex="1">
          <mxGeometry x="200" y="240" width="120" height="60" as="geometry" />
        </mxCell>
        <mxCell id="eNOYl5sb12fovu8s4lw6-20" value="Statistical Analysis" style="rounded=0;whiteSpace=wrap;html=1;dashed=1;" parent="1" vertex="1">
          <mxGeometry x="200" y="320" width="120" height="60" as="geometry" />
        </mxCell>
        <mxCell id="eNOYl5sb12fovu8s4lw6-21" value="Objectives Definition" style="rounded=0;whiteSpace=wrap;html=1;dashed=1;" parent="1" vertex="1">
          <mxGeometry x="200" y="400" width="120" height="60" as="geometry" />
        </mxCell>
        <mxCell id="eNOYl5sb12fovu8s4lw6-27" value="" style="ellipse;whiteSpace=wrap;html=1;aspect=fixed;" parent="1" vertex="1">
          <mxGeometry x="660" y="268" width="40" height="40" as="geometry" />
        </mxCell>
        <mxCell id="eNOYl5sb12fovu8s4lw6-28" value="" style="group" parent="1" vertex="1" connectable="0">
          <mxGeometry x="660" y="350" width="40" height="40" as="geometry" />
        </mxCell>
        <mxCell id="eNOYl5sb12fovu8s4lw6-24" value="" style="ellipse;whiteSpace=wrap;html=1;aspect=fixed;" parent="eNOYl5sb12fovu8s4lw6-28" vertex="1">
          <mxGeometry width="40" height="40" as="geometry" />
        </mxCell>
        <mxCell id="eNOYl5sb12fovu8s4lw6-25" value="" style="shape=image;verticalLabelPosition=bottom;labelBackgroundColor=default;verticalAlign=top;aspect=fixed;imageAspect=0;image=https://upload.wikimedia.org/wikipedia/commons/thumb/3/38/Jupyter_logo.svg/800px-Jupyter_logo.svg.png;" parent="eNOYl5sb12fovu8s4lw6-28" vertex="1">
          <mxGeometry x="6.209999999999923" y="4" width="27.59" height="32" as="geometry" />
        </mxCell>
        <mxCell id="eNOYl5sb12fovu8s4lw6-29" value="" style="group" parent="1" vertex="1" connectable="0">
          <mxGeometry x="660" y="430" width="40" height="40" as="geometry" />
        </mxCell>
        <mxCell id="eNOYl5sb12fovu8s4lw6-30" value="" style="ellipse;whiteSpace=wrap;html=1;aspect=fixed;" parent="eNOYl5sb12fovu8s4lw6-29" vertex="1">
          <mxGeometry width="40" height="40" as="geometry" />
        </mxCell>
        <mxCell id="eNOYl5sb12fovu8s4lw6-31" value="" style="shape=image;verticalLabelPosition=bottom;labelBackgroundColor=default;verticalAlign=top;aspect=fixed;imageAspect=0;image=https://upload.wikimedia.org/wikipedia/commons/thumb/3/38/Jupyter_logo.svg/800px-Jupyter_logo.svg.png;" parent="eNOYl5sb12fovu8s4lw6-29" vertex="1">
          <mxGeometry x="6.209999999999923" y="4" width="27.59" height="32" as="geometry" />
        </mxCell>
        <mxCell id="eNOYl5sb12fovu8s4lw6-32" value="" style="group" parent="1" vertex="1" connectable="0">
          <mxGeometry x="660" y="510" width="40" height="40" as="geometry" />
        </mxCell>
        <mxCell id="eNOYl5sb12fovu8s4lw6-33" value="" style="ellipse;whiteSpace=wrap;html=1;aspect=fixed;" parent="eNOYl5sb12fovu8s4lw6-32" vertex="1">
          <mxGeometry width="40" height="40" as="geometry" />
        </mxCell>
        <mxCell id="eNOYl5sb12fovu8s4lw6-34" value="" style="shape=image;verticalLabelPosition=bottom;labelBackgroundColor=default;verticalAlign=top;aspect=fixed;imageAspect=0;image=https://upload.wikimedia.org/wikipedia/commons/thumb/3/38/Jupyter_logo.svg/800px-Jupyter_logo.svg.png;" parent="eNOYl5sb12fovu8s4lw6-32" vertex="1">
          <mxGeometry x="6.209999999999923" y="4" width="27.59" height="32" as="geometry" />
        </mxCell>
        <mxCell id="eNOYl5sb12fovu8s4lw6-35" value="" style="group" parent="1" vertex="1" connectable="0">
          <mxGeometry x="660" y="570" width="40" height="40" as="geometry" />
        </mxCell>
        <mxCell id="eNOYl5sb12fovu8s4lw6-36" value="" style="ellipse;whiteSpace=wrap;html=1;aspect=fixed;" parent="eNOYl5sb12fovu8s4lw6-35" vertex="1">
          <mxGeometry width="40" height="40" as="geometry" />
        </mxCell>
        <mxCell id="eNOYl5sb12fovu8s4lw6-37" value="" style="shape=image;verticalLabelPosition=bottom;labelBackgroundColor=default;verticalAlign=top;aspect=fixed;imageAspect=0;image=https://upload.wikimedia.org/wikipedia/commons/thumb/3/38/Jupyter_logo.svg/800px-Jupyter_logo.svg.png;" parent="eNOYl5sb12fovu8s4lw6-35" vertex="1">
          <mxGeometry x="6.209999999999923" y="4" width="27.59" height="32" as="geometry" />
        </mxCell>
        <mxCell id="eNOYl5sb12fovu8s4lw6-38" value="" style="group" parent="1" vertex="1" connectable="0">
          <mxGeometry x="1020" y="270" width="40" height="40" as="geometry" />
        </mxCell>
        <mxCell id="eNOYl5sb12fovu8s4lw6-39" value="" style="ellipse;whiteSpace=wrap;html=1;aspect=fixed;" parent="eNOYl5sb12fovu8s4lw6-38" vertex="1">
          <mxGeometry width="40" height="40" as="geometry" />
        </mxCell>
        <mxCell id="eNOYl5sb12fovu8s4lw6-40" value="" style="shape=image;verticalLabelPosition=bottom;labelBackgroundColor=default;verticalAlign=top;aspect=fixed;imageAspect=0;image=https://upload.wikimedia.org/wikipedia/commons/thumb/3/38/Jupyter_logo.svg/800px-Jupyter_logo.svg.png;" parent="eNOYl5sb12fovu8s4lw6-38" vertex="1">
          <mxGeometry x="6.209999999999923" y="4" width="27.59" height="32" as="geometry" />
        </mxCell>
        <mxCell id="eNOYl5sb12fovu8s4lw6-47" value="" style="group" parent="1" vertex="1" connectable="0">
          <mxGeometry x="1020.01" y="510" width="40" height="40" as="geometry" />
        </mxCell>
        <mxCell id="eNOYl5sb12fovu8s4lw6-48" value="" style="ellipse;whiteSpace=wrap;html=1;aspect=fixed;" parent="eNOYl5sb12fovu8s4lw6-47" vertex="1">
          <mxGeometry width="40" height="40" as="geometry" />
        </mxCell>
        <mxCell id="eNOYl5sb12fovu8s4lw6-49" value="" style="shape=image;verticalLabelPosition=bottom;labelBackgroundColor=default;verticalAlign=top;aspect=fixed;imageAspect=0;image=https://upload.wikimedia.org/wikipedia/commons/thumb/3/38/Jupyter_logo.svg/800px-Jupyter_logo.svg.png;" parent="eNOYl5sb12fovu8s4lw6-47" vertex="1">
          <mxGeometry x="6.209999999999923" y="4" width="27.59" height="32" as="geometry" />
        </mxCell>
        <mxCell id="eNOYl5sb12fovu8s4lw6-50" value="" style="group" parent="1" vertex="1" connectable="0">
          <mxGeometry x="1020.01" y="590" width="40" height="40" as="geometry" />
        </mxCell>
        <mxCell id="eNOYl5sb12fovu8s4lw6-51" value="" style="ellipse;whiteSpace=wrap;html=1;aspect=fixed;" parent="eNOYl5sb12fovu8s4lw6-50" vertex="1">
          <mxGeometry width="40" height="40" as="geometry" />
        </mxCell>
        <mxCell id="eNOYl5sb12fovu8s4lw6-52" value="" style="shape=image;verticalLabelPosition=bottom;labelBackgroundColor=default;verticalAlign=top;aspect=fixed;imageAspect=0;image=https://upload.wikimedia.org/wikipedia/commons/thumb/3/38/Jupyter_logo.svg/800px-Jupyter_logo.svg.png;" parent="eNOYl5sb12fovu8s4lw6-50" vertex="1">
          <mxGeometry x="6.209999999999923" y="4" width="27.59" height="32" as="geometry" />
        </mxCell>
        <mxCell id="eNOYl5sb12fovu8s4lw6-56" value="" style="group" parent="1" vertex="1" connectable="0">
          <mxGeometry x="1020" y="430" width="40" height="40" as="geometry" />
        </mxCell>
        <mxCell id="eNOYl5sb12fovu8s4lw6-54" value="" style="ellipse;whiteSpace=wrap;html=1;aspect=fixed;" parent="eNOYl5sb12fovu8s4lw6-56" vertex="1">
          <mxGeometry width="40" height="40" as="geometry" />
        </mxCell>
        <mxCell id="eNOYl5sb12fovu8s4lw6-55" value="" style="shape=image;verticalLabelPosition=bottom;labelBackgroundColor=default;verticalAlign=top;aspect=fixed;imageAspect=0;image=https://www.svgrepo.com/show/375542/automl.svg;" parent="eNOYl5sb12fovu8s4lw6-56" vertex="1">
          <mxGeometry x="5" y="5" width="30" height="30" as="geometry" />
        </mxCell>
        <mxCell id="eNOYl5sb12fovu8s4lw6-61" value="Storage / Database" style="rounded=0;whiteSpace=wrap;html=1;strokeColor=#63e984;" parent="1" vertex="1">
          <mxGeometry x="560" y="640" width="880" height="30" as="geometry" />
        </mxCell>
        <mxCell id="eNOYl5sb12fovu8s4lw6-62" value="Infrastructure" style="rounded=0;whiteSpace=wrap;html=1;strokeColor=#63e984;" parent="1" vertex="1">
          <mxGeometry x="560" y="680" width="880" height="30" as="geometry" />
        </mxCell>
        <mxCell id="eNOYl5sb12fovu8s4lw6-70" value="CI/CD" style="rounded=0;whiteSpace=wrap;html=1;strokeColor=#63e984;" parent="1" vertex="1">
          <mxGeometry x="560" y="720" width="880" height="30" as="geometry" />
        </mxCell>
        <mxCell id="eNOYl5sb12fovu8s4lw6-65" value="" style="ellipse;whiteSpace=wrap;html=1;aspect=fixed;" parent="1" vertex="1">
          <mxGeometry x="1413" y="719" width="40" height="40" as="geometry" />
        </mxCell>
        <mxCell id="eNOYl5sb12fovu8s4lw6-66" value="" style="shape=image;verticalLabelPosition=bottom;labelBackgroundColor=default;verticalAlign=top;aspect=fixed;imageAspect=0;image=https://upload.wikimedia.org/wikipedia/commons/thumb/3/35/GitLab_icon.svg/1200px-GitLab_icon.svg.png;" parent="1" vertex="1">
          <mxGeometry x="1420.03" y="726.5" width="25.95" height="25" as="geometry" />
        </mxCell>
        <mxCell id="eNOYl5sb12fovu8s4lw6-60" value="" style="ellipse;whiteSpace=wrap;html=1;aspect=fixed;fontSize=15;" parent="1" vertex="1">
          <mxGeometry x="1413" y="674" width="40" height="40" as="geometry" />
        </mxCell>
        <mxCell id="eNOYl5sb12fovu8s4lw6-68" value="" style="shape=image;verticalLabelPosition=bottom;labelBackgroundColor=default;verticalAlign=top;aspect=fixed;imageAspect=0;image=https://cdn.creazilla.com/icons/3254445/terraform-icon-icon-size_256.png;" parent="1" vertex="1">
          <mxGeometry x="1421.03" y="680.06" width="26.26" height="29.87" as="geometry" />
        </mxCell>
        <mxCell id="eNOYl5sb12fovu8s4lw6-71" value="" style="ellipse;whiteSpace=wrap;html=1;aspect=fixed;fontSize=15;" parent="1" vertex="1">
          <mxGeometry x="1413" y="632" width="40" height="40" as="geometry" />
        </mxCell>
        <mxCell id="eNOYl5sb12fovu8s4lw6-73" value="" style="ellipse;whiteSpace=wrap;html=1;aspect=fixed;" parent="1" vertex="1">
          <mxGeometry x="1340" y="430" width="40" height="40" as="geometry" />
        </mxCell>
        <mxCell id="eNOYl5sb12fovu8s4lw6-74" value="" style="ellipse;whiteSpace=wrap;html=1;aspect=fixed;" parent="1" vertex="1">
          <mxGeometry x="1420.03" y="350" width="40" height="40" as="geometry" />
        </mxCell>
        <mxCell id="eNOYl5sb12fovu8s4lw6-75" value="" style="ellipse;whiteSpace=wrap;html=1;aspect=fixed;" parent="1" vertex="1">
          <mxGeometry x="1260" y="350" width="40" height="40" as="geometry" />
        </mxCell>
        <mxCell id="eNOYl5sb12fovu8s4lw6-76" value="" style="ellipse;whiteSpace=wrap;html=1;aspect=fixed;" parent="1" vertex="1">
          <mxGeometry x="1340" y="270" width="40" height="40" as="geometry" />
        </mxCell>
        <mxCell id="eNOYl5sb12fovu8s4lw6-77" value="" style="ellipse;whiteSpace=wrap;html=1;aspect=fixed;fontSize=15;" parent="1" vertex="1">
          <mxGeometry x="1360" y="632" width="40" height="40" as="geometry" />
        </mxCell>
        <mxCell id="eNOYl5sb12fovu8s4lw6-58" value="" style="ellipse;whiteSpace=wrap;html=1;aspect=fixed;" parent="1" vertex="1">
          <mxGeometry x="1020" y="350" width="40" height="40" as="geometry" />
        </mxCell>
        <mxCell id="eNOYl5sb12fovu8s4lw6-59" value="" style="shape=image;verticalLabelPosition=bottom;labelBackgroundColor=default;verticalAlign=top;aspect=fixed;imageAspect=0;image=https://www.svgrepo.com/show/375542/automl.svg;" parent="1" vertex="1">
          <mxGeometry x="1025" y="355" width="30" height="30" as="geometry" />
        </mxCell>
        <mxCell id="eNOYl5sb12fovu8s4lw6-79" value="" style="shape=image;verticalLabelPosition=bottom;labelBackgroundColor=default;verticalAlign=top;aspect=fixed;imageAspect=0;image=https://miro.medium.com/v2/resize:fit:1200/1*pxVX6vfbTP7OuMnV1NKmjA.png;" parent="1" vertex="1">
          <mxGeometry x="1418" y="637" width="30" height="30" as="geometry" />
        </mxCell>
        <mxCell id="eNOYl5sb12fovu8s4lw6-80" value="" style="shape=image;verticalLabelPosition=bottom;labelBackgroundColor=default;verticalAlign=top;aspect=fixed;imageAspect=0;image=https://images.icon-icons.com/2699/PNG/512/google_bigquery_logo_icon_168150.png;" parent="1" vertex="1">
          <mxGeometry x="1365" y="637" width="30" height="30" as="geometry" />
        </mxCell>
        <mxCell id="eNOYl5sb12fovu8s4lw6-81" value="" style="shape=image;verticalLabelPosition=bottom;labelBackgroundColor=default;verticalAlign=top;aspect=fixed;imageAspect=0;image=https://files.readme.io/2e5891d-gcp-logging.png;" parent="1" vertex="1">
          <mxGeometry x="1340" y="431" width="40.5" height="37" as="geometry" />
        </mxCell>
        <mxCell id="eNOYl5sb12fovu8s4lw6-83" value="" style="shape=image;verticalLabelPosition=bottom;labelBackgroundColor=default;verticalAlign=top;aspect=fixed;imageAspect=0;image=https://miro.medium.com/v2/resize:fit:283/1*YxXSnC7X5twjoC6p3QDG3Q.png;" parent="1" vertex="1">
          <mxGeometry x="1425.03" y="355" width="30" height="30" as="geometry" />
        </mxCell>
        <mxCell id="eNOYl5sb12fovu8s4lw6-84" value="" style="shape=image;verticalLabelPosition=bottom;labelBackgroundColor=default;verticalAlign=top;aspect=fixed;imageAspect=0;image=https://miro.medium.com/v2/resize:fit:283/1*YxXSnC7X5twjoC6p3QDG3Q.png;" parent="1" vertex="1">
          <mxGeometry x="1266" y="355" width="30" height="30" as="geometry" />
        </mxCell>
        <mxCell id="eNOYl5sb12fovu8s4lw6-85" value="" style="shape=image;verticalLabelPosition=bottom;labelBackgroundColor=default;verticalAlign=top;aspect=fixed;imageAspect=0;image=https://www.svgrepo.com/show/353806/google-cloud-functions.svg;" parent="1" vertex="1">
          <mxGeometry x="1342.5" y="273" width="35" height="35" as="geometry" />
        </mxCell>
        <mxCell id="eNOYl5sb12fovu8s4lw6-86" value="" style="shape=image;verticalLabelPosition=bottom;labelBackgroundColor=default;verticalAlign=top;aspect=fixed;imageAspect=0;image=https://codelabs.developers.google.com/static/codelabs/cloud-dataflow-starter/img/62b0919755804bea.png;" parent="1" vertex="1">
          <mxGeometry x="664" y="272" width="32" height="32" as="geometry" />
        </mxCell>
        <mxCell id="eNOYl5sb12fovu8s4lw6-88" value="" style="ellipse;whiteSpace=wrap;html=1;aspect=fixed;" parent="1" vertex="1">
          <mxGeometry x="1460.03" y="780" width="40" height="40" as="geometry" />
        </mxCell>
        <mxCell id="eNOYl5sb12fovu8s4lw6-89" value="" style="shape=image;verticalLabelPosition=bottom;labelBackgroundColor=default;verticalAlign=top;aspect=fixed;imageAspect=0;image=https://img.icons8.com/color/512/google-cloud.png;" parent="1" vertex="1">
          <mxGeometry x="1460.03" y="780" width="40" height="40" as="geometry" />
        </mxCell>
        <mxCell id="eNOYl5sb12fovu8s4lw6-90" value="" style="endArrow=none;html=1;rounded=0;" parent="1" edge="1">
          <mxGeometry width="50" height="50" relative="1" as="geometry">
            <mxPoint x="80" y="120" as="sourcePoint" />
            <mxPoint x="1520" y="120" as="targetPoint" />
          </mxGeometry>
        </mxCell>
        <mxCell id="eNOYl5sb12fovu8s4lw6-92" value="AI Platform" style="text;html=1;align=center;verticalAlign=middle;whiteSpace=wrap;rounded=0;fontSize=36;fontStyle=1" parent="1" vertex="1">
          <mxGeometry x="60" y="80" width="240" height="30" as="geometry" />
        </mxCell>
        <mxCell id="6hhR7SqfrPeBFcem6h1R-1" value="Coverage" style="text;html=1;align=left;verticalAlign=middle;whiteSpace=wrap;rounded=0;fontSize=36;fontStyle=0" vertex="1" parent="1">
          <mxGeometry x="300" y="80" width="240" height="30" as="geometry" />
        </mxCell>
        <mxCell id="6hhR7SqfrPeBFcem6h1R-2" value="" style="endArrow=none;html=1;rounded=0;" edge="1" parent="1">
          <mxGeometry width="50" height="50" relative="1" as="geometry">
            <mxPoint x="290" y="80" as="sourcePoint" />
            <mxPoint x="290" y="110" as="targetPoint" />
          </mxGeometry>
        </mxCell>
      </root>
    </mxGraphModel>
  </diagram>
</mxfile>
